<?xml version="1.0" standalone="no"?>
<!DOCTYPE svg PUBLIC "-//W3C//DTD SVG 20010904//EN"
 "http://www.w3.org/TR/2001/REC-SVG-20010904/DTD/svg10.dtd">
<svg version="1.0" xmlns="http://www.w3.org/2000/svg"
 width="1290.000000pt" height="1670.000000pt" viewBox="0 0 1290.000000 1670.000000"
 preserveAspectRatio="xMidYMid meet">

<g transform="translate(0.000000,1670.000000) scale(0.100000,-0.100000)"
fill="#000000" stroke="none">
<path d="M6604 15699 c-3 -5 -9 -7 -13 -5 -4 3 -23 1 -42 -3 -19 -4 -45 -4
-57 0 -12 5 -22 5 -22 1 0 -4 -18 -6 -40 -4 -22 2 -47 -1 -55 -8 -8 -6 -19 -9
-25 -5 -5 3 -10 1 -10 -5 0 -7 -6 -10 -14 -7 -7 3 -29 -5 -47 -17 -19 -13 -40
-21 -47 -18 -7 2 -19 -4 -27 -14 -10 -14 -25 -19 -58 -17 -30 1 -47 -3 -51
-12 -2 -7 -21 -18 -40 -25 -20 -6 -36 -16 -36 -21 0 -5 -6 -9 -14 -9 -8 0 -16
-3 -18 -7 -1 -5 -29 -21 -61 -36 -32 -16 -61 -35 -64 -43 -3 -8 -11 -14 -17
-14 -7 0 -18 -11 -24 -25 -7 -14 -24 -30 -38 -35 -25 -10 -63 -47 -64 -62 0
-12 -44 -53 -52 -51 -5 2 -8 -3 -8 -11 0 -7 -11 -21 -25 -30 -14 -9 -25 -22
-25 -30 0 -7 -11 -29 -24 -49 -13 -19 -22 -38 -18 -41 3 -3 0 -6 -6 -6 -7 0
-12 -8 -12 -17 -1 -22 -23 -53 -39 -53 -6 0 -11 -6 -11 -12 0 -7 -9 -24 -20
-38 -11 -14 -20 -37 -20 -51 0 -15 -14 -58 -32 -95 -18 -38 -33 -73 -35 -79
-1 -5 -7 -28 -13 -50 -7 -22 -13 -49 -14 -60 -1 -11 -5 -27 -8 -35 -8 -19 -19
-70 -19 -90 0 -8 -3 -22 -7 -30 -6 -17 -8 -30 -12 -111 -2 -30 0 -61 4 -68 5
-7 5 -27 2 -46 -4 -20 -2 -36 4 -40 6 -4 9 -13 6 -21 -3 -7 -1 -16 4 -19 5 -3
5 -16 -2 -30 -7 -16 -8 -29 -1 -37 5 -7 16 -35 22 -63 7 -27 16 -57 19 -65 3
-8 6 -19 6 -23 1 -4 6 -11 13 -15 23 -14 26 -77 5 -118 -11 -22 -30 -87 -43
-147 -21 -101 -22 -117 -12 -260 7 -97 16 -166 27 -191 15 -35 15 -44 3 -75
-17 -42 -10 -66 28 -101 26 -24 58 -29 130 -18 16 2 21 -4 26 -37 9 -58 38
-143 65 -198 21 -40 25 -62 25 -145 1 -53 -2 -139 -6 -189 -12 -150 32 -276
134 -388 16 -16 45 -59 66 -94 21 -35 66 -94 100 -130 34 -36 93 -109 133
-161 68 -91 178 -200 201 -200 6 0 11 -4 11 -10 0 -5 4 -10 9 -10 14 0 155
-83 160 -93 4 -11 6 -12 137 -116 92 -71 146 -128 225 -231 l26 -35 29 35 c16
18 47 59 68 89 22 31 78 97 125 146 47 50 118 124 156 165 39 41 92 95 119
119 33 30 56 62 72 102 28 69 74 240 74 278 0 14 11 57 25 95 16 45 22 79 18
99 -4 21 -3 28 5 23 7 -4 12 -5 12 -1 0 16 -29 72 -43 84 -25 20 -20 163 8
275 6 21 5 27 -4 22 -6 -4 -11 -1 -11 8 0 20 50 77 61 70 5 -3 9 -1 9 5 0 5
12 23 26 40 46 55 140 252 154 322 l13 66 63 -5 c61 -5 64 -4 94 28 32 34 39
75 19 111 -8 16 -6 42 10 107 52 224 60 314 40 445 -12 80 -29 118 -67 159
-21 23 -24 32 -15 50 20 43 44 138 38 148 -4 6 -1 9 6 8 7 -2 18 11 24 29 11
34 12 280 1 378 -7 62 -35 155 -49 166 -5 3 -8 12 -7 20 5 30 -1 48 -25 83
-14 20 -25 45 -25 56 0 10 -6 23 -13 27 -12 7 -35 48 -81 140 -6 13 -14 23
-18 23 -3 0 -19 26 -34 57 -15 32 -38 69 -53 83 -33 33 -61 68 -61 78 0 4 -18
24 -40 46 -22 21 -40 45 -40 53 0 8 -4 11 -10 8 -5 -3 -10 1 -10 9 0 9 -4 16
-10 16 -5 0 -10 7 -10 15 0 8 -3 14 -7 13 -16 -3 -64 22 -69 37 -4 8 -12 15
-20 15 -7 0 -21 11 -30 24 -8 14 -34 35 -57 47 -23 12 -63 34 -89 48 -27 13
-48 30 -48 37 0 7 -13 15 -30 19 -16 4 -30 11 -30 16 0 5 -9 9 -20 9 -11 0
-20 5 -20 11 0 9 -4 9 -13 0 -11 -8 -18 -6 -32 9 -14 15 -21 17 -31 9 -10 -8
-17 -7 -29 4 -8 8 -24 13 -35 10 -11 -3 -20 -1 -20 4 0 6 -45 9 -112 7 -62 -1
-130 2 -151 6 -21 4 -40 4 -43 -1z m-14 -819 c0 -6 40 -10 99 -10 94 0 101 -1
119 -25 11 -14 25 -25 30 -25 18 0 82 -86 82 -111 0 -13 3 -35 7 -49 l7 -25 7
30 7 30 1 -28 c0 -16 5 -26 11 -22 6 3 10 0 10 -9 0 -8 -5 -16 -11 -18 -18 -6
8 -117 37 -163 15 -22 42 -53 60 -68 27 -23 34 -36 34 -64 0 -30 -2 -34 -15
-23 -10 8 -15 9 -15 2 0 -7 -8 -9 -17 -5 -16 6 -16 5 -4 -10 8 -10 11 -20 7
-24 -3 -3 -6 -1 -6 6 0 8 -7 10 -21 6 -14 -5 -25 -2 -30 6 -7 11 -11 10 -23
-6 -15 -20 -15 -19 -17 5 l-1 25 -8 -25 -8 -25 -7 23 c-6 17 -12 21 -27 16
-24 -7 -77 -64 -78 -81 0 -7 -13 -25 -30 -40 -16 -14 -30 -34 -30 -44 0 -10
-5 -21 -10 -24 -7 -4 -10 -39 -8 -88 3 -77 2 -83 -19 -92 -23 -10 -33 -55 -13
-55 16 0 12 -40 -4 -46 -16 -6 -10 -33 8 -46 8 -6 6 -12 -4 -19 -11 -8 -12
-12 -2 -16 21 -8 14 -40 -11 -46 -12 -4 -43 -1 -69 6 l-47 12 24 47 c29 57 35
136 13 170 -10 15 -14 44 -13 86 1 34 -2 62 -6 62 -4 0 -14 16 -24 36 -9 20
-25 38 -34 41 -16 4 -32 27 -47 66 -3 9 -13 17 -20 17 -8 0 -14 5 -14 11 0 6
-7 9 -15 5 -8 -3 -15 -1 -15 4 0 17 -69 40 -100 33 -19 -3 -30 -1 -30 6 0 18
-30 12 -31 -6 -1 -10 -5 -1 -11 19 -5 20 -17 38 -26 40 -14 3 -14 5 1 20 9 9
17 22 17 28 0 16 31 62 57 85 23 21 31 55 13 55 -18 0 -11 18 10 25 18 6 20
15 20 80 0 41 5 77 10 80 6 3 10 21 11 38 0 25 2 28 8 13 7 -18 8 -18 14 -2 4
10 7 24 7 33 0 19 20 38 47 45 17 4 20 2 16 -11 -4 -14 -3 -14 10 2 8 9 23 17
35 17 11 0 22 7 26 15 6 17 56 21 56 5z m407 -322 c-3 -8 -6 -5 -6 6 -1 11 2
17 5 13 3 -3 4 -12 1 -19z m110 -240 c-3 -8 -6 -5 -6 6 -1 11 2 17 5 13 3 -3
4 -12 1 -19z m-1757 -82 c0 -3 -4 -8 -10 -11 -5 -3 -10 -1 -10 4 0 6 5 11 10
11 6 0 10 -2 10 -4z m810 -78 c0 -5 7 -8 15 -8 8 0 15 -7 15 -15 0 -8 9 -15
20 -15 11 0 23 -7 26 -15 4 -8 10 -13 14 -10 5 3 6 -4 3 -15 -3 -11 -10 -20
-15 -20 -5 0 -6 6 -2 13 6 9 4 9 -7 1 -18 -15 -118 -26 -158 -18 -30 6 -31 8
-31 61 l0 54 60 -3 c33 -1 60 -6 60 -10z m1084 -37 c7 -11 10 -11 17 0 6 10 9
8 9 -9 0 -15 -4 -21 -12 -16 -8 5 -9 2 -4 -11 4 -11 2 -22 -6 -27 -19 -12
-128 -10 -128 3 0 5 -4 7 -10 4 -5 -3 -10 3 -10 14 0 17 6 21 33 21 25 0 29 3
17 11 -12 9 -11 10 5 6 11 -2 26 2 32 8 15 16 45 14 57 -4z m-1147 -126 c-4
-11 -67 -15 -67 -5 0 12 9 16 40 15 16 0 29 -4 27 -10z m1177 -4 c14 -5 16
-10 8 -15 -16 -10 -74 3 -66 15 6 11 31 11 58 0z m-24 -61 c0 -5 -2 -10 -4
-10 -3 0 -8 5 -11 10 -3 6 -1 10 4 10 6 0 11 -4 11 -10z m-863 -26 c2 -5 -3
-19 -12 -29 -11 -15 -14 -17 -15 -5 0 9 -12 22 -26 31 l-26 16 38 -1 c21 -1
39 -6 41 -12z m-176 -5 c26 -13 15 -29 -21 -29 -23 0 -27 3 -23 20 6 23 16 25
44 9z m939 2 c0 -5 3 -16 6 -25 5 -13 -2 -16 -42 -16 l-48 0 34 25 c36 26 50
31 50 16z m-1170 -11 c0 -5 -2 -10 -4 -10 -3 0 -8 5 -11 10 -3 6 -1 10 4 10 6
0 11 -4 11 -10z m1020 5 c0 -2 -9 -9 -20 -15 -16 -9 -20 -8 -20 5 0 8 9 15 20
15 11 0 20 -2 20 -5z m-874 -67 c-10 -6 -34 -7 -54 -3 -28 6 -33 9 -19 14 10
4 35 5 54 3 30 -4 33 -6 19 -14z m144 18 c0 -2 -7 -7 -16 -10 -8 -3 -12 -2 -9
4 6 10 25 14 25 6z m809 -36 c28 0 164 -47 154 -53 -5 -3 -22 -4 -38 -1 -17 3
-42 5 -57 4 -16 0 -28 4 -28 10 0 5 -11 10 -25 10 -31 0 -75 27 -75 45 0 22
24 24 39 4 7 -10 21 -19 30 -19z m-787 -3 c-49 -51 -160 -104 -136 -65 4 7 3
8 -4 4 -7 -4 -12 -13 -12 -19 0 -7 -9 -13 -20 -14 -20 -2 -20 -1 2 17 13 10
19 22 15 26 -4 5 -11 4 -15 -2 -8 -11 -27 -12 -38 -2 -4 4 -13 3 -20 -3 -7 -6
-14 -6 -18 -1 -3 6 26 18 64 27 39 9 73 21 76 26 3 5 18 9 33 9 15 0 31 4 37
9 8 8 34 17 58 20 6 0 -5 -14 -22 -32z m963 13 c-3 -5 -15 -10 -26 -10 -11 0
-17 5 -14 10 3 6 15 10 26 10 11 0 17 -4 14 -10z m-1142 -17 c-7 -2 -19 -2
-25 0 -7 3 -2 5 12 5 14 0 19 -2 13 -5z m1124 -9 c-3 -3 -12 -4 -19 -1 -8 3
-5 6 6 6 11 1 17 -2 13 -5z m-37 -64 c8 -5 11 -12 7 -16 -4 -4 -15 0 -24 9
-18 18 -8 23 17 7z m-1170 -51 c0 -11 -4 -17 -10 -14 -5 3 -10 13 -10 21 0 8
5 14 10 14 6 0 10 -9 10 -21z m34 -24 c53 5 57 4 66 -20 10 -26 12 -26 88 -24
64 2 78 -1 80 -14 2 -9 -8 -23 -21 -32 -13 -8 -29 -26 -35 -40 -7 -16 -17 -23
-27 -19 -10 4 -15 0 -15 -10 0 -9 4 -16 9 -16 10 0 24 -43 25 -75 1 -14 -6
-20 -21 -21 -26 -1 -29 6 -10 25 6 8 0 6 -16 -4 -23 -15 -26 -15 -21 -2 3 8 1
18 -5 21 -10 7 -41 -19 -41 -35 0 -5 -6 -9 -12 -9 -7 0 -26 -14 -42 -30 -16
-17 -35 -30 -43 -30 -7 0 -13 -7 -13 -16 0 -8 -5 -12 -11 -8 -6 3 -14 2 -18
-4 -8 -14 -80 17 -81 34 0 6 -13 27 -29 47 -32 41 -46 112 -31 152 16 43 64
95 86 95 11 0 21 7 22 15 6 47 3 45 33 29 19 -9 46 -12 83 -9z m1161 -5 c-6
-10 19 -20 49 -20 13 0 26 -3 30 -7 10 -10 34 -13 165 -22 11 0 23 -10 26 -21
3 -11 12 -20 19 -20 8 0 18 -24 26 -61 9 -42 16 -56 22 -47 6 8 7 -1 3 -27 -4
-22 -17 -49 -30 -61 -13 -12 -21 -25 -18 -28 4 -3 1 -6 -5 -6 -6 0 -13 -9 -17
-20 -3 -11 -9 -19 -13 -19 -20 3 -32 -3 -32 -16 0 -22 -41 -18 -71 8 -15 12
-35 38 -44 57 -25 49 -135 158 -167 165 -17 4 -28 15 -32 31 -4 14 -14 24 -24
24 -10 0 -26 14 -35 30 -10 17 -24 30 -30 30 -28 1 20 20 49 20 17 0 36 6 42
13 12 14 96 11 87 -3z m563 -55 c0 -16 -2 -15 -8 5 -11 34 -11 60 0 35 5 -11
8 -29 8 -40z m-2235 -47 c-8 -84 -13 -86 -13 -5 0 37 4 67 9 67 5 0 7 -28 4
-62z m1127 47 c0 -8 9 -15 20 -15 11 0 20 7 20 15 0 8 8 14 18 14 26 -2 79
-16 65 -18 -7 0 -13 -7 -13 -14 0 -9 28 -18 83 -27 116 -18 127 -23 127 -61
l0 -31 -72 6 c-40 3 -89 8 -108 10 -19 2 -41 -1 -47 -6 -7 -6 -13 -7 -13 -3 0
4 -11 0 -25 -9 -27 -17 -71 -21 -79 -7 -4 5 -25 12 -49 16 -23 4 -53 13 -67
19 -14 7 -42 14 -62 15 -33 2 -38 0 -38 -18 0 -18 -6 -21 -45 -21 -33 0 -45 4
-45 15 0 8 -5 15 -10 15 -7 0 -7 6 0 20 13 23 63 38 111 32 23 -2 52 3 80 16
27 13 48 17 55 11 7 -5 18 0 32 16 24 28 62 34 62 10z m-1204 -120 c8 -32 0
-51 -23 -57 -20 -5 -26 15 -17 60 6 30 32 28 40 -3z m2434 -21 c0 -19 -4 -34
-9 -34 -18 0 -33 30 -27 55 9 36 36 21 36 -21z m64 19 c-10 -40 -14 -41 -14
-5 0 18 5 32 10 32 6 0 8 -11 4 -27z m-1328 -200 c-1 -7 -5 -15 -8 -19 -4 -3
-4 -12 -2 -19 3 -7 0 -16 -5 -20 -6 -3 -9 -11 -6 -16 9 -14 55 -11 55 4 0 6 5
4 11 -6 6 -9 15 -15 21 -11 5 3 20 2 31 -4 12 -5 34 -14 48 -20 22 -9 26 -15
21 -39 -6 -33 -35 -61 -71 -69 -14 -3 -38 -10 -53 -14 -17 -6 -28 -5 -28 1 0
5 -3 8 -7 7 -5 -2 -25 7 -45 19 -28 17 -38 29 -38 48 0 17 6 25 18 25 15 1 15
2 -3 16 -25 18 -22 57 8 101 21 31 57 42 53 16z m21 -5 c-3 -8 -6 -5 -6 6 -1
11 2 17 5 13 3 -3 4 -12 1 -19z m46 15 c-7 -2 -19 -2 -25 0 -7 3 -2 5 12 5 14
0 19 -2 13 -5z m56 -83 c0 -23 -1 -23 -8 -5 -5 11 -11 36 -15 55 l-6 35 15
-30 c8 -16 14 -41 14 -55z m-43 33 c-11 -11 -17 4 -9 23 7 18 8 18 11 1 2 -10
1 -21 -2 -24z m-36 7 c0 -5 -2 -10 -4 -10 -3 0 -8 5 -11 10 -3 6 -1 10 4 10 6
0 11 -4 11 -10z m-40 -264 c21 -12 29 -12 53 0 39 21 212 9 236 -16 23 -25 25
-42 4 -58 -12 -10 -13 -13 -3 -10 8 2 22 18 30 36 10 21 22 32 38 32 26 0 27
-4 7 -60 -15 -44 -11 -69 6 -38 5 9 17 25 27 34 16 17 17 17 20 0 6 -27 -6
-46 -27 -46 -11 0 -23 -5 -27 -11 -5 -9 1 -10 22 -5 16 4 41 10 56 13 15 3 25
9 23 14 -3 4 8 15 25 24 17 9 30 11 30 5 0 -5 -7 -10 -15 -10 -8 0 -15 -4 -15
-8 0 -5 -26 -35 -57 -68 -61 -64 -161 -134 -191 -134 -10 0 -23 -5 -29 -11
-17 -17 -232 -24 -320 -9 -115 19 -223 74 -223 113 0 15 -61 67 -79 67 -6 0
-11 5 -11 10 0 6 8 10 18 8 14 -2 16 3 14 35 -2 20 0 37 5 37 4 0 21 -14 39
-31 l32 -31 -5 26 c-13 64 19 93 46 43 6 -12 9 -14 7 -5 -8 27 36 50 100 53
31 2 58 6 62 9 10 11 77 5 102 -8z m840 -472 c0 -8 -5 -12 -10 -9 -6 4 -8 11
-5 16 9 14 15 11 15 -7z m-50 -54 c0 -5 -5 -10 -11 -10 -5 0 -7 5 -4 10 3 6 8
10 11 10 2 0 4 -4 4 -10z m-668 -25 c5 -6 8 -5 8 3 0 16 87 17 92 0 5 -14 -22
-48 -38 -48 -6 0 -19 -10 -27 -22 -13 -19 -16 -20 -16 -5 -1 20 -21 23 -21 3
0 -8 -6 -17 -12 -19 -7 -3 4 -6 25 -6 41 -1 77 -16 77 -31 0 -6 -9 -5 -20 2
-17 11 -24 7 -62 -32 -32 -34 -40 -40 -36 -22 8 29 0 28 -12 -2 -8 -21 -13
-23 -52 -19 -24 3 -54 11 -67 18 -17 8 -36 9 -67 3 -29 -6 -54 -6 -72 1 l-27
10 23 7 c18 5 22 12 18 30 -3 12 -2 24 3 26 4 2 5 26 2 55 l-7 52 40 4 c81 7
241 2 248 -8z"/>
<path d="M6195 13780 c-4 -6 -11 -8 -16 -5 -5 4 -9 -1 -9 -9 0 -19 9 -20 33
-2 11 8 14 17 8 20 -5 4 -12 2 -16 -4z"/>
<path d="M6201 13444 c0 -11 3 -14 6 -6 3 7 2 16 -1 19 -3 4 -6 -2 -5 -13z"/>
<path d="M6571 13534 c0 -11 3 -14 6 -6 3 7 2 16 -1 19 -3 4 -6 -2 -5 -13z"/>
<path d="M6606 13254 c-10 -25 -1 -27 19 -4 15 17 16 20 3 20 -9 0 -19 -7 -22
-16z"/>
<path d="M6400 12890 c0 -5 5 -10 11 -10 5 0 7 5 4 10 -3 6 -8 10 -11 10 -2 0
-4 -4 -4 -10z"/>
<path d="M6286 12840 c5 -5 22 -11 37 -12 15 -1 27 -6 27 -10 0 -10 97 -9 130
2 24 8 24 8 -7 9 -17 1 -35 6 -38 11 -5 8 -11 7 -21 -1 -11 -9 -24 -9 -53 0
-48 14 -89 15 -75 1z"/>
<path d="M6550 12839 c0 -5 5 -7 10 -4 6 3 10 8 10 11 0 2 -4 4 -10 4 -5 0
-10 -5 -10 -11z"/>
<path d="M6823 12823 c9 -2 23 -2 30 0 6 3 -1 5 -18 5 -16 0 -22 -2 -12 -5z"/>
<path d="M6910 12820 c0 -5 5 -10 10 -10 6 0 10 5 10 10 0 6 -4 10 -10 10 -5
0 -10 -4 -10 -10z"/>
<path d="M7527 12560 c-3 -11 -3 -20 -1 -20 2 0 8 9 14 20 6 11 7 20 2 20 -6
0 -12 -9 -15 -20z"/>
<path d="M6121 11453 c-11 -24 -10 -29 6 -41 31 -23 111 -62 130 -63 16 0 16
-1 -1 -8 -19 -7 -19 -8 1 -13 14 -4 24 0 27 9 4 8 13 13 21 9 12 -4 13 -2 2
14 -11 18 -12 19 -19 2 -5 -14 -7 -14 -7 -1 -1 8 -18 25 -38 36 -21 12 -51 35
-67 52 -17 17 -33 31 -36 31 -4 0 -12 -12 -19 -27z"/>
<path d="M7697 11392 c-10 -10 -17 -23 -17 -29 0 -5 -9 -18 -20 -28 -11 -10
-17 -22 -14 -26 8 -13 26 -11 22 2 -5 16 65 88 77 78 5 -5 16 -9 25 -9 12 1
11 4 -4 15 -26 20 -49 19 -69 -3z"/>
<path d="M7530 11285 c-25 -13 -41 -24 -37 -25 11 0 87 39 87 45 0 7 0 7 -50
-20z"/>
<path d="M8930 9602 c0 -15 -3 -38 -6 -52 -5 -22 -4 -23 6 -7 22 35 29 75 14
81 -10 4 -14 -3 -14 -22z"/>
<path d="M4385 9486 c-10 -14 -33 -43 -51 -63 -40 -44 -57 -92 -52 -148 3 -39
4 -37 32 47 16 48 34 89 41 92 14 5 58 86 51 93 -2 3 -12 -7 -21 -21z"/>
<path d="M4200 8998 c0 -6 -16 -35 -36 -64 -20 -29 -34 -58 -32 -66 3 -8 12 1
23 22 9 19 23 42 31 50 19 22 35 70 24 70 -6 0 -10 -5 -10 -12z"/>
<path d="M8783 8875 c0 -27 2 -38 4 -22 2 15 2 37 0 50 -2 12 -4 0 -4 -28z"/>
<path d="M4065 8383 c-5 -76 -3 -107 9 -138 14 -38 14 -33 9 95 -3 74 -7 136
-8 138 -2 2 -6 -41 -10 -95z"/>
<path d="M4120 7976 c0 -41 -3 -83 -7 -93 -3 -10 3 -6 17 10 17 22 28 27 46
23 39 -10 31 35 -16 89 l-40 46 0 -75z"/>
<path d="M8922 6860 c0 -14 2 -19 5 -12 2 6 2 18 0 25 -3 6 -5 1 -5 -13z"/>
<path d="M8807 6217 c-30 -34 -30 -27 -11 -147 5 -29 1 -53 -14 -88 -18 -42
-20 -54 -10 -86 9 -29 9 -67 -1 -162 -16 -171 -17 -172 -64 -128 -20 19 -37
40 -37 46 0 6 -10 2 -22 -9 -13 -12 -41 -28 -62 -37 -45 -19 -110 -69 -179
-140 -44 -44 -57 -51 -160 -81 -63 -18 -154 -55 -210 -84 -53 -28 -105 -51
-115 -51 -10 0 -40 -22 -67 -50 -52 -53 -70 -58 -136 -40 -30 9 -47 6 -103
-15 -56 -21 -86 -26 -179 -27 -99 -1 -116 -3 -147 -24 -30 -20 -53 -24 -160
-30 -131 -7 -164 -17 -211 -61 -24 -22 -41 -26 -140 -35 -63 -5 -126 -7 -141
-4 -16 3 -28 1 -28 -4 0 -16 -109 -32 -163 -24 -29 4 -56 7 -60 6 -37 -10
-201 -2 -247 11 -30 9 -113 24 -185 32 -71 9 -195 27 -275 40 -180 30 -340 52
-445 60 -44 4 -116 13 -160 21 -118 20 -397 100 -452 128 l-48 24 48 -1 c30 0
52 5 57 13 4 7 12 10 18 6 19 -12 102 -24 102 -15 0 8 -15 11 -36 8 -4 0 -10
4 -13 10 -4 5 -49 17 -101 25 -165 27 -216 50 -329 148 -53 47 -211 148 -231
148 -5 0 -45 32 -90 71 -59 52 -80 66 -80 52 0 -30 -20 -91 -34 -106 -20 -20
-56 -178 -55 -239 1 -29 3 -45 6 -35 5 18 18 23 27 8 15 -23 56 -276 56 -342
0 -93 -16 -142 -74 -223 -24 -33 -46 -71 -50 -84 -7 -22 -6 -22 13 -10 28 17
37 4 46 -67 3 -29 17 -85 31 -125 25 -74 30 -144 15 -231 -9 -58 -6 -65 35
-85 19 -9 34 -19 34 -23 0 -10 -52 -31 -78 -31 -13 0 -20 -4 -17 -10 3 -5 27
-10 52 -10 l45 0 -6 -52 c-23 -187 -108 -443 -239 -718 -48 -100 -63 -115
-179 -175 -62 -32 -213 -149 -216 -167 -2 -10 2 -18 10 -18 7 0 20 -25 30 -58
10 -32 33 -82 53 -110 34 -50 35 -54 24 -96 -12 -48 -5 -92 68 -451 19 -93 40
-210 48 -260 7 -49 33 -182 58 -295 24 -113 86 -410 136 -660 118 -580 116
-571 147 -641 27 -59 27 -62 21 -210 -4 -86 -2 -160 3 -174 l10 -25 1173 0
1174 0 26 88 c15 48 30 110 33 137 4 28 10 57 15 65 10 18 12 -6 17 -217 l2
-73 1155 0 c635 0 1155 2 1155 4 0 3 9 67 20 142 24 159 41 239 69 315 27 74
65 231 90 372 23 127 77 377 84 383 2 2 20 -3 41 -11 31 -13 35 -18 26 -35
-21 -39 -12 -57 39 -79 27 -11 63 -21 78 -21 16 0 56 -9 88 -21 61 -21 122
-25 225 -14 202 23 287 37 310 54 13 9 55 78 92 152 52 101 75 163 97 249 31
124 43 161 87 258 l28 63 -13 137 c-7 75 -26 232 -42 347 -16 116 -31 221 -33
235 -2 14 -12 85 -22 158 l-19 132 -35 -7 c-97 -21 -595 -3 -665 24 -9 3 -21
-13 -36 -46 -21 -51 -47 -71 -35 -28 3 12 6 37 6 55 0 23 5 32 16 32 12 0 15
7 12 30 -3 19 0 31 9 34 10 4 11 11 3 25 -5 11 -9 37 -9 58 l2 38 7 -40 7 -40
3 35 c1 19 2 44 0 55 -1 11 -3 95 -4 187 -1 129 2 168 12 168 6 0 12 5 12 11
0 5 -4 8 -9 4 -10 -6 -20 18 -26 63 -2 15 -4 29 -5 32 -1 3 -3 11 -4 19 0 8
-6 16 -12 18 -8 3 -11 -47 -8 -179 l3 -183 -14 150 c-7 83 -14 209 -13 280 0
123 1 128 13 85 l13 -45 2 65 c1 36 2 71 1 79 -2 7 2 10 8 7 17 -11 24 -113
11 -164 -21 -82 -22 -88 -12 -73 7 10 13 6 23 -18 14 -31 32 -40 44 -21 3 6 0
10 -8 10 -26 0 -35 72 -21 187 4 41 3 67 -4 76 -16 19 -32 99 -25 125 7 27 23
28 46 2 10 -12 22 -18 26 -15 5 3 21 -9 36 -26 l26 -32 -7 29 c-11 46 -43 104
-57 104 -8 0 -23 10 -35 23 -19 20 -22 35 -22 103 0 99 7 129 26 113 19 -16
18 1 -2 30 -15 21 -59 240 -50 249 2 2 18 -4 35 -12 53 -28 55 -17 4 24 l-50
39 -22 113 c-12 62 -28 140 -36 173 -7 33 -21 96 -31 140 -10 44 -18 121 -18
172 l-1 91 -51 49 c-28 26 -81 77 -118 112 -37 36 -79 85 -93 109 l-26 44 12
142 c24 281 31 352 42 431 16 110 12 123 -24 82z m-4830 -624 c-3 -10 -5 -2
-5 17 0 19 2 27 5 18 2 -10 2 -26 0 -35z m3020 -659 c-3 -3 -12 -4 -19 -1 -8
3 -5 6 6 6 11 1 17 -2 13 -5z m-149 -11 c-32 -2 -84 -2 -115 0 -32 2 -6 3 57
3 63 0 89 -1 58 -3z m-261 -19 c-3 -3 -12 -4 -19 -1 -8 3 -5 6 6 6 11 1 17 -2
13 -5z m-171 -49 c-23 -17 -36 -19 -36 -6 0 11 18 19 40 20 11 0 10 -3 -4 -14z
m2698 -2905 c3 -36 3 -154 0 -262 l-7 -198 -28 0 c-15 0 -39 -4 -53 -10 -29
-10 -28 -16 -12 60 3 14 17 102 31 195 50 330 56 348 69 215z m346 -68 c0 -5
16 -27 36 -51 20 -23 35 -44 33 -46 -12 -10 -112 -75 -114 -73 -2 2 2 42 8 91
7 59 15 87 24 87 7 0 13 -4 13 -8z m60 -356 c0 -20 -7 -23 -74 -31 -47 -6 -58
-5 -54 6 4 11 46 24 121 38 4 0 7 -5 7 -13z m-266 -102 c9 -3 16 -15 16 -25 0
-27 -65 -27 -80 0 -5 11 -10 22 -10 25 0 8 54 8 74 0z m96 -54 c0 -5 -4 -10
-9 -10 -6 0 -13 5 -16 10 -3 6 1 10 9 10 9 0 16 -4 16 -10z m-34 -105 c-4 -14
-11 -25 -16 -25 -5 0 -5 13 2 31 12 35 23 31 14 -6z m-229 -4 c16 -23 6 -32
-33 -29 -31 2 -50 18 -21 18 9 0 8 3 -2 9 -7 5 -10 14 -6 20 8 15 46 4 62 -18z
m183 -51 c-8 -5 -19 -10 -25 -10 -5 0 -3 5 5 10 8 5 20 10 25 10 6 0 3 -5 -5
-10z"/>
<path d="M3743 5973 c-11 -35 -2 -137 10 -109 14 34 21 136 9 136 -5 0 -14
-12 -19 -27z"/>
<path d="M3852 5795 c0 -16 4 -41 8 -55 l8 -25 0 25 c0 14 -4 39 -8 55 l-8 30
0 -30z"/>
</g>
</svg>
